# xmcd
#
# Track frame offsets:
#       150
#       14433
#       29775
#       43696
#       56825
#       70646
#       86519
#       99238
#       112038
#       124773
#       138102
#       148646
#       162174
#       173575
#       186348
#       198973
#       213791
#       226884
#       237740
#       251727
#       266145
#       280310
#       292819
#       305920
#       320330
#
# Disc length: 4456 seconds
#
# Revision: 1
# Processed by: cddbd v1.5.1PL0 Copyright (c) Steve Scherf et al.
# Submitted via: MusiCat 1.1
#
DISCID=73116619
DTITLE=Memphis Jug Band - He's In The Jailhouse Now
DYEAR=1900
DGENRE=
TTITLE0=Newport News - Blues
TTITLE1=Sun Brimmers Blues
TTITLE2=Sometimes I Think I Love You
TTITLE3=Kansas City Blues
TTITLE4=Beale Street Mess Around
TTITLE5=Coal Oil Blues
TTITLE6=On The Road Again
TTITLE7=Lindberg Hop
TTITLE8=Jug Band Waltz
TTITLE9=Stealin' Stealin'
TTITLE10=I Can't Stand It
TTITLE11=I Can Beat You Plenty
TTITLE12=K. C. Moan
TTITLE13=Memphis Yo Yo Blues
TTITLE14=Cocaine Habit Blues
TTITLE15=Fourth Street Mess Around
TTITLE16=Bumble Bee Blues
TTITLE17=Going Back To Memphis
TTITLE18=Spider's Nest Blues
TTITLE19=He's In The Jailhouse Now
TTITLE20=Move That Thing
TTITLE21=Gator Wobble
TTITLE22=Jazzbo Stomp
TTITLE23=Mary Ann Cut Off
TTITLE24=Jug Band Quartette
EXTD=Acrobat Music\nACRCD 190\n
EXTT0=
EXTT1=
EXTT2=
EXTT3=
EXTT4=
EXTT5=
EXTT6=
EXTT7=
EXTT8=
EXTT9=
EXTT10=
EXTT11=
EXTT12=
EXTT13=
EXTT14=
EXTT15=
EXTT16=
EXTT17=
EXTT18=
EXTT19=
EXTT20=
EXTT21=
EXTT22=
EXTT23=
EXTT24=
PLAYORDER=
